<svg id="Layer_1" data-name="Layer 1" xmlns="http://www.w3.org/2000/svg" viewBox="0 0 84.04 108.47"><defs><style>.cls-1{fill:#34669c;}.cls-2{fill:#ffd605;}</style></defs><g id="ISTIKLAL_HOMES" data-name="ISTIKLAL HOMES"><path class="cls-1" d="M19.26,94.25c.11,0,.52,0,1.25,0a.22.22,0,0,1,0,.16.21.21,0,0,1,0,.15,3,3,0,0,0-.43,0q-.28,0-.3.12a3.19,3.19,0,0,0-.06.8v4.58a3.19,3.19,0,0,0,.06.8s.11.09.3.12a3,3,0,0,0,.43,0,.21.21,0,0,1,0,.15.22.22,0,0,1,0,.16l-1.25-.06-1.26.06a.22.22,0,0,1,0-.16.39.39,0,0,1,0-.15,3.09,3.09,0,0,0,.44,0q.27,0,.3-.12a4.07,4.07,0,0,0,.05-.8V95.48a4.07,4.07,0,0,0-.05-.8q0-.08-.3-.12a3.09,3.09,0,0,0-.44,0,.39.39,0,0,1,0-.15.22.22,0,0,1,0-.16C18.73,94.24,19.15,94.25,19.26,94.25Z" transform="translate(-17.96 -5.88)"/><path class="cls-1" d="M23.77,94.16l.44,0a2,2,0,0,1,.34.07l.39.1.45.11c0,.31.09.82.15,1.52,0,0,0,.06-.08.09a.4.4,0,0,1-.15,0,.12.12,0,0,1-.11,0,2.06,2.06,0,0,0-.1-.37,1.71,1.71,0,0,0-.2-.41,2.2,2.2,0,0,0-.3-.37,1.28,1.28,0,0,0-.9-.39,1.35,1.35,0,0,0-.55.11,1,1,0,0,0-.37.29,1.56,1.56,0,0,0-.19.39,1.34,1.34,0,0,0-.06.4,1,1,0,0,0,0,.3.88.88,0,0,0,.09.26,1.06,1.06,0,0,0,.16.23l.19.2.24.18.24.17.27.16.27.17.28.17.31.19.31.21.3.24a2,2,0,0,1,.25.25,1.15,1.15,0,0,1,.22.3,1.64,1.64,0,0,1,.14.33,1.58,1.58,0,0,1,.05.38,1.69,1.69,0,0,1-.19.8,1.82,1.82,0,0,1-.5.63,2.32,2.32,0,0,1-.71.39,2.39,2.39,0,0,1-.84.14l-.54,0-.48-.08-.49-.11-.41-.09c-.06-.28-.11-.61-.16-1s-.07-.6-.07-.68a.38.38,0,0,1,.28-.13.11.11,0,0,1,.12.1,2.77,2.77,0,0,0,.09.33,3.68,3.68,0,0,0,.2.42,2,2,0,0,0,.33.43,1.39,1.39,0,0,0,.49.32,1.6,1.6,0,0,0,.67.14A1.23,1.23,0,0,0,25,99.74a1.55,1.55,0,0,0,0-.31,1.47,1.47,0,0,0-.08-.25A1.37,1.37,0,0,0,24.7,99l-.17-.18c-.06,0-.13-.1-.22-.15l-.24-.15-.26-.15-.27-.15L23.25,98,23,97.86c-.15-.09-.24-.16-.3-.2l-.25-.2a1.61,1.61,0,0,1-.26-.24L22,97a1.23,1.23,0,0,1-.17-.28c0-.09-.06-.19-.09-.31a1.32,1.32,0,0,1,0-.34,1.7,1.7,0,0,1,.3-1,2,2,0,0,1,.78-.67A2.17,2.17,0,0,1,23.77,94.16Z" transform="translate(-17.96 -5.88)"/><path class="cls-1" d="M31.79,94.21a1.76,1.76,0,0,0,.33,0,1.51,1.51,0,0,0,.31-.11.21.21,0,0,1,.2,0c.09.75.18,1.36.28,1.84a.23.23,0,0,1-.2.08c-.08,0-.13,0-.15,0a2.5,2.5,0,0,0-.38-1,.8.8,0,0,0-.65-.35H30.17v5.47a3.19,3.19,0,0,0,.06.8s.11.09.3.12a3,3,0,0,0,.43,0,.21.21,0,0,1,0,.15.22.22,0,0,1,0,.16l-1.25-.06-1.26.06a.22.22,0,0,1,0-.16.39.39,0,0,1,0-.15,3.09,3.09,0,0,0,.44,0q.27,0,.3-.12a4.07,4.07,0,0,0,0-.8V94.59H27.86a.8.8,0,0,0-.65.35,2.5,2.5,0,0,0-.38,1s-.07,0-.15,0a.23.23,0,0,1-.2-.08c.1-.48.19-1.09.28-1.84a.27.27,0,0,1,.24,0,1.21,1.21,0,0,0,.29.1,1.5,1.5,0,0,0,.31,0Z" transform="translate(-17.96 -5.88)"/><path class="cls-1" d="M34.8,94.25c.1,0,.52,0,1.25,0a.22.22,0,0,1,0,.16.27.27,0,0,1,0,.15,3.25,3.25,0,0,0-.44,0q-.27,0-.3.12a4.07,4.07,0,0,0-.05.8v4.58a4.07,4.07,0,0,0,.05.8s.12.09.3.12a3.25,3.25,0,0,0,.44,0,.27.27,0,0,1,0,.15.22.22,0,0,1,0,.16l-1.25-.06-1.26.06a.22.22,0,0,1,0-.16.27.27,0,0,1,0-.15,3.25,3.25,0,0,0,.44,0q.27,0,.3-.12a4.07,4.07,0,0,0,0-.8V95.48a4.07,4.07,0,0,0,0-.8q0-.08-.3-.12a3.25,3.25,0,0,0-.44,0,.27.27,0,0,1,0-.15.22.22,0,0,1,0-.16C34.27,94.24,34.69,94.25,34.8,94.25Z" transform="translate(-17.96 -5.88)"/><path class="cls-1" d="M38.27,94.25c.1,0,.52,0,1.25,0a.26.26,0,0,1,0,.17.29.29,0,0,1,0,.17,3.09,3.09,0,0,0-.44,0c-.18,0-.28.08-.3.13a3,3,0,0,0-.05.79v2.14a11.57,11.57,0,0,0,1.21-1.09c.41-.41.7-.7.86-.88a7.48,7.48,0,0,0,.5-.58.59.59,0,0,0,.15-.33.19.19,0,0,0,0-.08l0-.06-.07,0-.08,0-.09,0h-.29a.28.28,0,0,1,0-.15.48.48,0,0,1,0-.18l.38,0,.46,0h.39l.67,0,.48,0a.45.45,0,0,1,0,.19c0,.1,0,.14,0,.14H43l-.19,0a1.29,1.29,0,0,0-.21.06l-.22.11-.2.17-.66.7-.55.56-.63.6-.64.61a.11.11,0,0,0,0,.08l.3.36.31.35.28.33.29.34.27.3.28.32.25.27.27.29.25.24c.08.09.17.17.25.25a1.73,1.73,0,0,0,.49.34,2.06,2.06,0,0,0,.68.16.3.3,0,0,1,0,.17.37.37,0,0,1,0,.14,5.77,5.77,0,0,1-1.52-.12,1.93,1.93,0,0,1-.73-.46c-.2-.19-1-1.1-2.41-2.72,0,0-.05,0-.1,0l-.09,0v2a3.94,3.94,0,0,0,.05.79c0,.05.12.09.3.13a2.82,2.82,0,0,0,.44,0,.36.36,0,0,1,0,.18.26.26,0,0,1,0,.17l-1.25-.06-1.27.06a.34.34,0,0,1,0-.17.36.36,0,0,1,0-.18,2.73,2.73,0,0,0,.44,0c.19,0,.29-.08.3-.13a3.09,3.09,0,0,0,.06-.79V95.51a3,3,0,0,0-.06-.79s-.11-.1-.3-.13a2.94,2.94,0,0,0-.44,0,.29.29,0,0,1,0-.17.34.34,0,0,1,0-.17C37.74,94.24,38.16,94.25,38.27,94.25Z" transform="translate(-17.96 -5.88)"/><path class="cls-1" d="M45.76,100.06a2.18,2.18,0,0,0,.06.77.5.5,0,0,0,.24.09,3.35,3.35,0,0,0,.52,0h.61a3.23,3.23,0,0,0,.69-.07,1.39,1.39,0,0,0,.56-.22,1.91,1.91,0,0,0,.68-1.08s.06-.07.15-.07a.38.38,0,0,1,.27.07c0,.09-.09.24-.16.44s-.14.37-.18.5-.09.27-.14.43a3.4,3.4,0,0,0-.1.41l-1.73,0c-.78,0-1.43,0-1.92,0h-.67l-.6,0a.22.22,0,0,1,0-.16.21.21,0,0,1,0-.15,3,3,0,0,0,.43,0q.28,0,.3-.12a3.19,3.19,0,0,0,.06-.8V95.48a3.19,3.19,0,0,0-.06-.8q0-.08-.3-.12a3,3,0,0,0-.43,0,.21.21,0,0,1,0-.15.22.22,0,0,1,0-.16c.73,0,1.15,0,1.26,0s.52,0,1.25,0a.22.22,0,0,1,0,.16.39.39,0,0,1,0,.15,3.09,3.09,0,0,0-.44,0q-.27,0-.3.12a3.07,3.07,0,0,0-.05.8Z" transform="translate(-17.96 -5.88)"/><path class="cls-1" d="M50.6,99.81Q52,96.17,52.67,94.5a.66.66,0,0,1,.19-.2.46.46,0,0,1,.21-.11h0l0,0L55.31,100c.18.47.27.7.28.71a.55.55,0,0,0,.33.27,1.51,1.51,0,0,0,.4.1.3.3,0,0,1,0,.16c0,.07,0,.12,0,.15l-1.18-.06h-.41l-.42,0-.41,0a.22.22,0,0,1,0-.16.26.26,0,0,1,0-.15l.33,0a.6.6,0,0,0,.27-.1.21.21,0,0,0,0-.15,2.88,2.88,0,0,0-.18-.67c-.12-.35-.24-.67-.36-1l-.19-.45s0,0-.06,0H52.72c-.45,0-.83,0-1.16,0l-.05,0c-.2.53-.36,1-.48,1.31a2.47,2.47,0,0,0-.15.77.17.17,0,0,0,.1.15.67.67,0,0,0,.24.1l.24,0h.16a.41.41,0,0,1,0,.14.72.72,0,0,1,0,.17l-.34,0-.34,0h-.75l-.37,0-.38,0s0-.06,0-.14a.34.34,0,0,1,0-.17,1.41,1.41,0,0,0,.35-.06.55.55,0,0,0,.29-.15A4,4,0,0,0,50.6,99.81Zm2.1-4.32-1,2.62s0,0,0,0l1,0,.9,0h0s0,0,0,0h0Z" transform="translate(-17.96 -5.88)"/><path class="cls-1" d="M58.5,100.06a2,2,0,0,0,.07.77.43.43,0,0,0,.24.09,3.21,3.21,0,0,0,.52,0h.61a3.37,3.37,0,0,0,.69-.07,1.52,1.52,0,0,0,.56-.22,1.9,1.9,0,0,0,.67-1.08s.06-.07.15-.07.23,0,.27.07-.08.24-.16.44-.13.37-.18.5l-.14.43a3.4,3.4,0,0,0-.1.41l-1.72,0c-.79,0-1.43,0-1.93,0h-.66l-.61,0a.23.23,0,0,1,0-.16.28.28,0,0,1,0-.15,3.09,3.09,0,0,0,.44,0q.28,0,.3-.12a3.38,3.38,0,0,0,0-.8V95.48a3.38,3.38,0,0,0,0-.8q0-.08-.3-.12a3.09,3.09,0,0,0-.44,0,.28.28,0,0,1,0-.15.23.23,0,0,1,0-.16c.73,0,1.15,0,1.26,0s.52,0,1.26,0a.3.3,0,0,1,0,.16.28.28,0,0,1,0,.15,2.94,2.94,0,0,0-.44,0q-.28,0-.3.12a2.93,2.93,0,0,0-.06.8Z" transform="translate(-17.96 -5.88)"/><path class="cls-1" d="M67.29,94.25c.1,0,.52,0,1.25,0a.25.25,0,0,1,0,.17.37.37,0,0,1,0,.17,3.09,3.09,0,0,0-.44,0c-.18,0-.28.08-.3.13a3.87,3.87,0,0,0,0,.79v1.88l0,0,1.68,0,1.64,0a.08.08,0,0,0,0,0V95.51a3.87,3.87,0,0,0,0-.79s-.12-.1-.3-.13a3.09,3.09,0,0,0-.44,0,.37.37,0,0,1,0-.17.25.25,0,0,1,0-.17c.73,0,1.15,0,1.26,0s.52,0,1.25,0a.25.25,0,0,1,0,.17.27.27,0,0,1,0,.17,3.25,3.25,0,0,0-.44,0c-.18,0-.28.08-.3.13a3.87,3.87,0,0,0,0,.79V100a3.94,3.94,0,0,0,0,.79c0,.05.12.09.3.13a2.93,2.93,0,0,0,.44,0,.34.34,0,0,1,0,.18.25.25,0,0,1,0,.17l-1.25-.06-1.26.06a.25.25,0,0,1,0-.17.48.48,0,0,1,0-.18,2.82,2.82,0,0,0,.44,0c.18,0,.28-.08.3-.13a3.94,3.94,0,0,0,0-.79V97.9l0,0-.73,0c-.39,0-.7,0-.91,0a10.67,10.67,0,0,0-1.69.06V100a3.94,3.94,0,0,0,0,.79c0,.05.12.09.3.13a2.82,2.82,0,0,0,.44,0,.48.48,0,0,1,0,.18.25.25,0,0,1,0,.17l-1.25-.06-1.26.06a.25.25,0,0,1,0-.17.34.34,0,0,1,0-.18,2.93,2.93,0,0,0,.44,0c.18,0,.28-.08.3-.13a3.94,3.94,0,0,0,0-.79V95.51a3.87,3.87,0,0,0,0-.79s-.12-.1-.3-.13a3.25,3.25,0,0,0-.44,0,.27.27,0,0,1,0-.17.25.25,0,0,1,0-.17C66.76,94.24,67.18,94.25,67.29,94.25Z" transform="translate(-17.96 -5.88)"/><path class="cls-1" d="M77.2,94.15a3.38,3.38,0,0,1,1.34.27,3.58,3.58,0,0,1,1.12.74,3.47,3.47,0,0,1,.75,1.16,3.74,3.74,0,0,1,.28,1.47,3.5,3.5,0,0,1-.28,1.4,3.57,3.57,0,0,1-.75,1.16,3.69,3.69,0,0,1-1.12.78,3.25,3.25,0,0,1-1.34.28,3.36,3.36,0,0,1-1.33-.27,3.66,3.66,0,0,1-1.11-.74A3.5,3.5,0,0,1,74,99.25a3.79,3.79,0,0,1-.28-1.46A3.6,3.6,0,0,1,74,96.37a3.66,3.66,0,0,1,.74-1.16,3.5,3.5,0,0,1,1.11-.77A3.1,3.1,0,0,1,77.2,94.15Zm-.16.36a1.92,1.92,0,0,0-.84.18,1.83,1.83,0,0,0-.64.48,2.61,2.61,0,0,0-.43.69,3.91,3.91,0,0,0-.26.82,4.94,4.94,0,0,0-.07.87A4.43,4.43,0,0,0,75,98.8a4.37,4.37,0,0,0,.49,1.12,2.47,2.47,0,0,0,.82.82,2.1,2.1,0,0,0,1.1.31,2,2,0,0,0,.85-.18,1.93,1.93,0,0,0,.64-.48,2.85,2.85,0,0,0,.43-.7,3.82,3.82,0,0,0,.26-.83,4.94,4.94,0,0,0,.07-.87,4.43,4.43,0,0,0-.17-1.25,4.32,4.32,0,0,0-.5-1.11,2.44,2.44,0,0,0-.82-.81A2,2,0,0,0,77,94.51Z" transform="translate(-17.96 -5.88)"/><path class="cls-1" d="M82.84,94.25c.18,0,.47,0,.87,0q.09.28.48,1.23l.94,2.25c.36.87.64,1.55.84,2.06l0,0a.05.05,0,0,0,0,0c1-2.7,1.59-4.11,1.64-4.23l.47-1.29.84,0c.45,0,.85,0,1.2,0l0,.31a2.34,2.34,0,0,0-.44.06c-.19,0-.3.09-.32.13a1,1,0,0,0-.06.41c0,.22,0,.61,0,1.16s0,1.2,0,1.94,0,1.27,0,1.59a3.58,3.58,0,0,0,.13,1c0,.07.12.12.3.14a3.2,3.2,0,0,0,.45,0,.38.38,0,0,1,0,.16.58.58,0,0,1,0,.15l-1.28-.06h-.41l-.45,0-.42,0a.31.31,0,0,1,0-.13.32.32,0,0,1,0-.18,2,2,0,0,0,.37,0,1.11,1.11,0,0,0,.33-.08q.09-.06.09-.45s0-.16,0-.31,0-.26,0-.31c-.06-2.21-.11-3.74-.14-4.6a.93.93,0,0,0,0-.14s0-.07-.07-.07,0,0-.06.07c-.16.41-.92,2.3-2.26,5.68a1.74,1.74,0,0,1-.19.32c-.09.14-.16.22-.21.23l-.1,0L83,95c0,.68,0,1.48-.06,2.37s0,1.63-.06,2.21,0,.87,0,.88a.92.92,0,0,0,0,.33q0,.11.36.15a3.67,3.67,0,0,0,.49,0,.27.27,0,0,1,0,.15.51.51,0,0,1,0,.16l-.36,0-.39,0h-.79l-.43,0-.42,0a.31.31,0,0,1,0-.13.74.74,0,0,1,0-.18,3.83,3.83,0,0,0,.49,0c.21,0,.34-.09.38-.15a1,1,0,0,0,.13-.53q.15-4,.15-5.13a1.86,1.86,0,0,0,0-.43c0-.06-.13-.11-.32-.16a1.92,1.92,0,0,0-.43-.07s0-.05,0-.15a.38.38,0,0,1,0-.16l.37,0,.35,0Z" transform="translate(-17.96 -5.88)"/><path class="cls-1" d="M92.56,94.25l1.66,0c.78,0,1.38,0,1.78,0a7.12,7.12,0,0,0,.17.82c.08.34.12.55.14.64a.29.29,0,0,1-.19,0c-.09,0-.14,0-.15-.07a1.47,1.47,0,0,0-.46-.81,1.41,1.41,0,0,0-.78-.2h-.92c-.47,0-.72,0-.74.12a2.8,2.8,0,0,0,0,.76v2s0,0,.12,0h1.32a1.27,1.27,0,0,0,.28,0,.5.5,0,0,0,.19-.07.43.43,0,0,0,.11-.12.51.51,0,0,0,.09-.18l.07-.27a.64.64,0,0,1,0-.09c0-.05.06-.08.16-.08a.22.22,0,0,1,.18.06v2a.23.23,0,0,1-.17,0c-.09,0-.15,0-.17-.09a3.17,3.17,0,0,0-.17-.54.45.45,0,0,0-.13-.17A4.1,4.1,0,0,0,93.79,98h-.64l-.1,0,0,0v2c0,.13,0,.28,0,.45s0,.27.06.29a.43.43,0,0,0,.24.09,3.28,3.28,0,0,0,.52,0h.51a3.22,3.22,0,0,0,.76-.08,1.75,1.75,0,0,0,.59-.21.93.93,0,0,0,.37-.39,5.37,5.37,0,0,0,.31-.69s.06-.07.15-.07.22,0,.26.07-.08.24-.16.44-.13.37-.18.5l-.14.43a3.13,3.13,0,0,0-.09.41l-1.73,0c-.79,0-1.43,0-1.92,0H91.9l-.61,0a.3.3,0,0,1,0-.16.28.28,0,0,1,0-.15,2.94,2.94,0,0,0,.44,0q.28,0,.3-.12a3.19,3.19,0,0,0,.06-.8V95.48a3.19,3.19,0,0,0-.06-.8q0-.08-.3-.12a2.94,2.94,0,0,0-.44,0,.28.28,0,0,1,0-.15.3.3,0,0,1,0-.16C92,94.24,92.45,94.25,92.56,94.25Z" transform="translate(-17.96 -5.88)"/><path class="cls-1" d="M99.88,94.16l.44,0a2,2,0,0,1,.34.07l.39.1.45.11c0,.31.09.82.15,1.52,0,0,0,.06-.08.09a.4.4,0,0,1-.15,0,.16.16,0,0,1-.12,0,1.42,1.42,0,0,0-.09-.37,1.71,1.71,0,0,0-.2-.41,2.2,2.2,0,0,0-.3-.37,1.2,1.2,0,0,0-.41-.28,1.17,1.17,0,0,0-.49-.11,1.35,1.35,0,0,0-.55.11,1,1,0,0,0-.37.29,1.56,1.56,0,0,0-.19.39,1.34,1.34,0,0,0-.06.4,1,1,0,0,0,0,.3.88.88,0,0,0,.09.26,1.06,1.06,0,0,0,.16.23l.19.2.24.18.24.17.27.16.27.17.28.17.31.19.3.21a3.43,3.43,0,0,1,.31.24l.25.25a1.15,1.15,0,0,1,.22.3,1.64,1.64,0,0,1,.14.33,1.58,1.58,0,0,1,0,.38,1.69,1.69,0,0,1-.19.8,1.82,1.82,0,0,1-.5.63,2.58,2.58,0,0,1-.71.39,2.39,2.39,0,0,1-.84.14l-.54,0c-.19,0-.36,0-.48-.08l-.49-.11-.41-.09c-.06-.28-.11-.61-.16-1s-.07-.6-.07-.68a.38.38,0,0,1,.28-.13.11.11,0,0,1,.12.1,2.77,2.77,0,0,0,.09.33,3.68,3.68,0,0,0,.2.42,2,2,0,0,0,.33.43,1.39,1.39,0,0,0,.49.32,1.59,1.59,0,0,0,.66.14,1.3,1.3,0,0,0,.92-.35,1.27,1.27,0,0,0,.37-1,1.55,1.55,0,0,0,0-.31.92.92,0,0,0-.09-.25.85.85,0,0,0-.14-.21l-.17-.18c-.06,0-.13-.1-.22-.15l-.24-.15-.26-.15-.27-.15L99.36,98l-.28-.16-.29-.2-.25-.2a1.61,1.61,0,0,1-.26-.24L98.09,97a1,1,0,0,1-.17-.28,1.93,1.93,0,0,1-.09-.31,1.33,1.33,0,0,1,0-.34,1.64,1.64,0,0,1,.31-1,2,2,0,0,1,.77-.67A2.24,2.24,0,0,1,99.88,94.16Z" transform="translate(-17.96 -5.88)"/></g><g id="Real_Estate" data-name="Real Estate"><path class="cls-1" d="M42.93,108.17a2.25,2.25,0,0,1,.66.1,2.31,2.31,0,0,1,.61.3,1.51,1.51,0,0,1,.46.51,1.31,1.31,0,0,1,.18.69,1.38,1.38,0,0,1-.4.91,2,2,0,0,1-.89.61,26.14,26.14,0,0,0,1.52,2.17,1.51,1.51,0,0,0,.45.4,1.65,1.65,0,0,0,.61.15.3.3,0,0,1,0,.15.5.5,0,0,1,0,.12,4.72,4.72,0,0,1-1.24-.11,1.51,1.51,0,0,1-.46-.25l-.15-.16c-.08-.11-.28-.39-.6-.86s-.62-.91-.89-1.33a.32.32,0,0,0-.28-.11H42v1.72a2.92,2.92,0,0,0,0,.68s.1.08.26.11a2.13,2.13,0,0,0,.39,0,.63.63,0,0,1,0,.13.24.24,0,0,1,0,.14l-1.1,0-1.11,0a.24.24,0,0,1,0-.14.21.21,0,0,1,0-.13,2.31,2.31,0,0,0,.39,0c.16,0,.25-.06.26-.11a4.2,4.2,0,0,0,0-.68v-3.94a2.86,2.86,0,0,0,0-.68s-.1-.08-.26-.11a2.12,2.12,0,0,0-.38,0,.24.24,0,0,1,0-.14.14.14,0,0,1,0-.13l1.1,0h1.34Zm1,1.68a1.41,1.41,0,0,0-.35-1,1.44,1.44,0,0,0-1.1-.38c-.28,0-.44,0-.47.1a2.91,2.91,0,0,0,0,.69v1.93h.5a1.56,1.56,0,0,0,1-.37A1.21,1.21,0,0,0,44,109.85Z" transform="translate(-17.96 -5.88)"/><path class="cls-1" d="M46.83,112a1.8,1.8,0,0,0,.42,1.31,1.48,1.48,0,0,0,1.11.46,1.16,1.16,0,0,0,.61-.16,1.92,1.92,0,0,0,.42-.33l0,0a.1.1,0,0,1,0,0,.14.14,0,0,1,0,.06.32.32,0,0,1-.06.17,1.33,1.33,0,0,1-.19.24,2.44,2.44,0,0,1-.28.25,1.51,1.51,0,0,1-.4.21,1.42,1.42,0,0,1-.5.08,1.8,1.8,0,0,1-1.35-.54,1.92,1.92,0,0,1-.53-1.38,2.18,2.18,0,0,1,.18-.86,2.14,2.14,0,0,1,.44-.7,2.35,2.35,0,0,1,.59-.46,1.46,1.46,0,0,1,.64-.17,1.76,1.76,0,0,1,.58.09,1.43,1.43,0,0,1,.41.24,1.54,1.54,0,0,1,.25.32,1.4,1.4,0,0,1,.13.33.93.93,0,0,1,0,.27.85.85,0,0,1-.05.32.19.19,0,0,1-.18.12l-1.21,0Zm.05-.34h1.53q.2,0,.21-.21a.53.53,0,0,0,0-.23,1.19,1.19,0,0,0-.12-.29.75.75,0,0,0-.25-.25.61.61,0,0,0-.36-.1.8.8,0,0,0-.4.11.84.84,0,0,0-.29.27,1.66,1.66,0,0,0-.17.32,1.91,1.91,0,0,0-.1.27C46.88,111.58,46.87,111.62,46.88,111.62Z" transform="translate(-17.96 -5.88)"/><path class="cls-1" d="M52.08,110.23a.89.89,0,0,1,.72.37,1.31,1.31,0,0,1,.31.89v1.9c0,.29.09.44.29.44h.08l.07,0,.06,0,0,0a.05.05,0,0,0,0,0h0s0,0,0,.07a.34.34,0,0,1,0,.17,2,2,0,0,1-.34.23,1,1,0,0,1-.37.13.5.5,0,0,1-.36-.19.89.89,0,0,1-.21-.41,3.35,3.35,0,0,1-.53.37,1.4,1.4,0,0,1-.62.24,1.09,1.09,0,0,1-.78-.3,1,1,0,0,1-.32-.76.82.82,0,0,1,.47-.74l.56-.19.69-.23.39-.16s.08,0,.09-.07,0-.08,0-.16v-.25a.87.87,0,0,0-.23-.6.72.72,0,0,0-.57-.28.4.4,0,0,0-.35.14,1,1,0,0,0-.17.43c0,.29-.2.44-.44.44a.28.28,0,0,1-.23-.12.44.44,0,0,1-.09-.27.89.89,0,0,1,0-.11.38.38,0,0,1,.05-.11,3.21,3.21,0,0,1,.77-.51A2.07,2.07,0,0,1,52.08,110.23Zm-.5,3.6a1.16,1.16,0,0,0,.52-.15c.2-.1.29-.18.29-.23v-1.26l-.87.27a1,1,0,0,0-.42.28.69.69,0,0,0-.15.44.64.64,0,0,0,.18.45A.59.59,0,0,0,51.58,113.83Z" transform="translate(-17.96 -5.88)"/><path class="cls-1" d="M54.71,109.1a1.49,1.49,0,0,0-.05-.48c0-.11-.24-.17-.57-.17,0,0,0,0,0,0a.48.48,0,0,1,0-.12.1.1,0,0,1,0-.07,4.34,4.34,0,0,0,1.33-.36s0,0,.07,0a.22.22,0,0,1,0,.1,2.54,2.54,0,0,0-.1.81v4.38a2.92,2.92,0,0,0,0,.68s.09.08.23.11a1.86,1.86,0,0,0,.36,0,.21.21,0,0,1,0,.13.24.24,0,0,1,0,.14l-1,0h-.31l-.35,0-.33,0a.24.24,0,0,1,0-.14.21.21,0,0,1,0-.13,1.7,1.7,0,0,0,.35,0c.15,0,.23-.06.24-.11a2.92,2.92,0,0,0,.05-.68Z" transform="translate(-17.96 -5.88)"/><path class="cls-1" d="M60.61,108.19c.28,0,.77,0,1.46,0l1.56,0c0,.18.07.42.14.71a4.92,4.92,0,0,1,.13.55s-.08,0-.17,0-.12,0-.13-.06a1,1,0,0,0-1.09-.87h-.8c-.41,0-.63,0-.65.1a2.54,2.54,0,0,0-.05.66V111s0,0,.11,0h1.16l.25,0,.16-.06a.36.36,0,0,0,.1-.11.34.34,0,0,0,.07-.16l.07-.23a.19.19,0,0,1,0-.08s0-.06.14-.06a.23.23,0,0,1,.16,0v1.74a.21.21,0,0,1-.15,0,.14.14,0,0,1-.15-.08c-.07-.24-.12-.39-.15-.46a.36.36,0,0,0-.12-.15,3.71,3.71,0,0,0-1-.07h-.56l-.09,0s0,0,0,0v1.76c0,.1,0,.23,0,.38s0,.23,0,.25a.39.39,0,0,0,.21.08,4,4,0,0,0,.46,0h.45a3.7,3.7,0,0,0,.66-.07,1.74,1.74,0,0,0,.52-.18.88.88,0,0,0,.32-.34,5,5,0,0,0,.27-.59s.05-.06.13-.06a.35.35,0,0,1,.24.06c0,.08-.08.2-.14.38s-.12.32-.16.42-.08.24-.12.38a2,2,0,0,0-.09.35l-1.52,0-1.68,0H60l-.53,0a.24.24,0,0,1,0-.14.21.21,0,0,1,0-.13,2.22,2.22,0,0,0,.39,0c.16,0,.25-.06.26-.11a2.92,2.92,0,0,0,.05-.68v-3.94a2.86,2.86,0,0,0-.05-.68s-.1-.08-.26-.11a2.22,2.22,0,0,0-.39,0,.24.24,0,0,1,0-.14.23.23,0,0,1,0-.13Z" transform="translate(-17.96 -5.88)"/><path class="cls-1" d="M66.41,110.22a3.75,3.75,0,0,1,.52,0l.44.07a5.36,5.36,0,0,1,.11,1s0,.05-.09.05a.25.25,0,0,1-.16-.05,1.79,1.79,0,0,0-.3-.58.62.62,0,0,0-.49-.27.72.72,0,0,0-.49.16.54.54,0,0,0-.17.42.78.78,0,0,0,0,.22.48.48,0,0,0,.08.16.62.62,0,0,0,.14.15l.16.11a1.27,1.27,0,0,0,.2.12l.2.11.19.11a1.35,1.35,0,0,1,.21.13c.05,0,.11.07.2.12a1.26,1.26,0,0,1,.2.16l.14.17a.71.71,0,0,1,.11.21.85.85,0,0,1,0,.23,1.14,1.14,0,0,1-.43.91,1.51,1.51,0,0,1-1,.36l-.36,0-.39-.08-.35-.07a2.06,2.06,0,0,1-.11-.46,4,4,0,0,1,0-.5.27.27,0,0,1,.17-.06.15.15,0,0,1,.08,0,1.3,1.3,0,0,0,.38.6.91.91,0,0,0,.64.28.68.68,0,0,0,.48-.18.63.63,0,0,0,.19-.49.68.68,0,0,0-.06-.29.8.8,0,0,0-.19-.24l-.25-.18-.32-.18-.32-.17a1.6,1.6,0,0,1-.52-.42.84.84,0,0,1-.2-.57,1,1,0,0,1,.41-.81A1.51,1.51,0,0,1,66.41,110.22Z" transform="translate(-17.96 -5.88)"/><path class="cls-1" d="M69.55,110.26h1.21s0,0,0,.1a.38.38,0,0,1-.14.28H69.55v2.42c0,.5.2.76.62.76a1,1,0,0,0,.61-.22s0,0,0,.07a.23.23,0,0,1,0,.14l-.21.2a2.18,2.18,0,0,1-.33.2,1,1,0,0,1-.43.1,1.25,1.25,0,0,1-.35,0,.89.89,0,0,1-.31-.15.67.67,0,0,1-.23-.31,1.23,1.23,0,0,1-.08-.49v-2.68h-.55s0,0,0-.08,0-.06.11-.14l.14-.16h.35v-.58l.21-.24.25-.26.11-.12.06,0s0,0,.06,0,0,0,0,0Z" transform="translate(-17.96 -5.88)"/><path class="cls-1" d="M73.23,110.23a.89.89,0,0,1,.71.37,1.31,1.31,0,0,1,.31.89v1.9c0,.29.1.44.29.44h.08l.07,0,.06,0,0,0,0,0h0s0,0,0,.07a.34.34,0,0,1,0,.17,1.62,1.62,0,0,1-.34.23.93.93,0,0,1-.36.13.5.5,0,0,1-.36-.19,1,1,0,0,1-.22-.41,2.92,2.92,0,0,1-.53.37,1.4,1.4,0,0,1-.62.24,1.09,1.09,0,0,1-.78-.3,1,1,0,0,1-.32-.76.8.8,0,0,1,.15-.47.87.87,0,0,1,.32-.27l.57-.19.68-.23.39-.16a.2.2,0,0,0,.1-.07.47.47,0,0,0,0-.16v-.25a.88.88,0,0,0-.24-.6.72.72,0,0,0-.57-.28.41.41,0,0,0-.35.14,1,1,0,0,0-.17.43c0,.29-.2.44-.44.44a.28.28,0,0,1-.23-.12.44.44,0,0,1-.09-.27.89.89,0,0,1,0-.11.38.38,0,0,1,0-.11,3.21,3.21,0,0,1,.77-.51A2.08,2.08,0,0,1,73.23,110.23Zm-.51,3.6a1.16,1.16,0,0,0,.52-.15c.2-.1.3-.18.3-.23v-1.26c-.49.14-.78.23-.88.27a1.15,1.15,0,0,0-.42.28.69.69,0,0,0-.15.44.64.64,0,0,0,.18.45A.62.62,0,0,0,72.72,113.83Z" transform="translate(-17.96 -5.88)"/><path class="cls-1" d="M76.51,110.26h1.21s0,0,0,.1a.41.41,0,0,1-.13.28H76.51v2.42c0,.5.21.76.62.76a1,1,0,0,0,.61-.22s0,0,0,.07a.18.18,0,0,1,0,.14l-.21.2a1.48,1.48,0,0,1-.33.2.94.94,0,0,1-.43.1,1.34,1.34,0,0,1-.35,0,1,1,0,0,1-.31-.15.74.74,0,0,1-.23-.31,1.44,1.44,0,0,1-.08-.49v-2.68h-.55s0,0,0-.08,0-.06.1-.14l.14-.16h.35v-.58l.21-.24.25-.26.11-.12.06,0s0,0,.06,0,0,0,0,0Z" transform="translate(-17.96 -5.88)"/><path class="cls-1" d="M79,112a1.8,1.8,0,0,0,.42,1.31,1.48,1.48,0,0,0,1.11.46,1.16,1.16,0,0,0,.61-.16,1.92,1.92,0,0,0,.42-.33l0,0,0,0a.14.14,0,0,1,0,.06.32.32,0,0,1-.06.17,1.33,1.33,0,0,1-.19.24,2.44,2.44,0,0,1-.28.25,1.51,1.51,0,0,1-.4.21,1.42,1.42,0,0,1-.5.08,1.8,1.8,0,0,1-1.35-.54,1.92,1.92,0,0,1-.53-1.38,2.18,2.18,0,0,1,.18-.86,2.14,2.14,0,0,1,.44-.7,2.55,2.55,0,0,1,.59-.46,1.46,1.46,0,0,1,.64-.17,1.72,1.72,0,0,1,.58.09,1.43,1.43,0,0,1,.41.24,1.54,1.54,0,0,1,.25.32,1.4,1.4,0,0,1,.13.33.93.93,0,0,1,0,.27.85.85,0,0,1,0,.32.19.19,0,0,1-.18.12l-1.21,0Zm0-.34h1.53q.2,0,.21-.21a.53.53,0,0,0,0-.23,1.19,1.19,0,0,0-.12-.29.75.75,0,0,0-.25-.25.61.61,0,0,0-.36-.1.8.8,0,0,0-.4.11.84.84,0,0,0-.29.27,1.66,1.66,0,0,0-.17.32,1.91,1.91,0,0,0-.1.27C79,111.58,79,111.62,79,111.62Z" transform="translate(-17.96 -5.88)"/></g><path id="Tram" class="cls-1" d="M66.26,87.05H69l-1.49-2.12a2.86,2.86,0,0,0,1.42-2.45V80h.29a.55.55,0,0,0,.55-.55v0a.55.55,0,0,0-.55-.54h-.29V72.3h.29a.55.55,0,0,0,.55-.54v-.05a.55.55,0,0,0-.55-.55h-.36a2.9,2.9,0,0,0-2.42-2.25v-1.6H62.68l1.54-1.22H65v-.56H58.66v.56h.84L61,67.31H57.32V68.9a2.92,2.92,0,0,0-2.48,2.26h-.38a.55.55,0,0,0-.55.55v.05a.55.55,0,0,0,.55.54h.32v2.19h-.61V74H53.05v2.15h1.12v-.42h.61v3.13h-.32a.55.55,0,0,0-.55.54v0a.55.55,0,0,0,.55.55h.32v2.47a2.88,2.88,0,0,0,1.39,2.44L54.66,87h2.86m.7,0h7.34M54.78,75.46h-.61v-.69h.61ZM64,67.87h1.79v1H64ZM60.4,66.09h2.92l-1.46,1.16.07.06h-.15l.08-.06Zm-2.51,1.78h5.58v1H57.89Zm-1.75,2.27a1.5,1.5,0,0,1,1-.42h9.27a1.45,1.45,0,0,1,1.47,1.44H55.71A1.44,1.44,0,0,1,56.14,70.14Zm3.76,8.72V74h0a4.75,4.75,0,0,1,3.86,0h0v4.88Zm-4.27,0V74h0a4.33,4.33,0,0,1,1.84-.41,4.27,4.27,0,0,1,1.84.41h0v4.88Zm12.25,7.68H55.77l.91-1.31c0,.29,10.27.29,10.27,0ZM68,78.86H64.34V74h0A4.33,4.33,0,0,1,68,74h0Z" transform="translate(-17.96 -5.88)"/><g id="IH"><path class="cls-2" d="M58.57,79.9l1,0a.16.16,0,0,1,0,.11s0,.09,0,.11l-.35,0c-.15,0-.23,0-.24.08a2.13,2.13,0,0,0,0,.55V83.9a2,2,0,0,0,0,.54s.09.07.24.09l.35,0s0,.06,0,.11a.16.16,0,0,1,0,.11l-1,0-1,0a.16.16,0,0,1,0-.11.53.53,0,0,1,0-.11l.35,0q.23,0,.24-.09a2,2,0,0,0,0-.54V80.74a2.13,2.13,0,0,0,0-.55s-.09-.06-.24-.08l-.35,0a.53.53,0,0,1,0-.11.16.16,0,0,1,0-.11Z" transform="translate(-17.96 -5.88)"/><path class="cls-2" d="M61.33,79.9l1,0a.25.25,0,0,1,0,.24l-.35,0q-.21,0-.24.09a2.61,2.61,0,0,0,0,.54v1.3l0,0,1.34,0,1.3,0s0,0,0,0V80.76a2,2,0,0,0,0-.54s-.09-.07-.24-.09l-.35,0a.26.26,0,0,1,0-.24l1,0,1,0a.14.14,0,0,1,0,.12.29.29,0,0,1,0,.12l-.35,0q-.22,0-.24.09a1.89,1.89,0,0,0,0,.54v3.11a1.93,1.93,0,0,0,0,.55s.09.06.24.09l.35,0a.29.29,0,0,1,0,.12.14.14,0,0,1,0,.12l-1,0-1,0a.26.26,0,0,1,0-.24l.35,0c.15,0,.23-.05.24-.09a2.08,2.08,0,0,0,0-.55V82.41l0,0-.57,0h-.73a8.63,8.63,0,0,0-1.35.05h0v1.46a2.66,2.66,0,0,0,0,.55s.1.06.24.09l.35,0a.25.25,0,0,1,0,.24l-1,0-1,0a.26.26,0,0,1,0-.24l.35,0c.15,0,.23-.05.24-.09a2.66,2.66,0,0,0,0-.55V80.76a2.61,2.61,0,0,0,0-.54s-.09-.07-.24-.09l-.35,0a.26.26,0,0,1,0-.24Z" transform="translate(-17.96 -5.88)"/></g><g id="_003" data-name="003"><polygon class="cls-1" points="58.81 52.79 57.09 53.45 58.03 79.79 58.81 52.79"/><polygon class="cls-1" points="55.96 53.88 54.17 54.56 54.62 65.7 55.69 68.7 55.96 53.88"/><polygon class="cls-1" points="53.05 54.98 51.35 55.63 51.6 61.82 52.91 63.14 53.05 54.98"/><polygon class="cls-1" points="50.27 56.04 48.41 56.75 48.56 59.83 50.19 60.74 50.27 56.04"/><polygon class="cls-1" points="47.22 57.2 45.44 57.88 45.5 58.82 47.18 59.27 47.22 57.2"/><polygon class="cls-1" points="54.88 74.29 55.31 74.32 55.26 78.66 54.99 77.92 54.88 74.29"/><polygon class="cls-1" points="28.46 64.34 30.22 63.67 29.14 81.15 28.46 64.34"/><path class="cls-1" d="M50,80.39a13.68,13.68,0,0,0,.5,1.33L50.3,87Z" transform="translate(-17.96 -5.88)"/><path class="cls-1" d="M49.19,69.17l.33,5.69a11.76,11.76,0,0,1,1.29-4.06l.1-2.29Z" transform="translate(-17.96 -5.88)"/><path class="cls-1" d="M52,68.91a6.51,6.51,0,0,1,.63-.77H52l0,.77" transform="translate(-17.96 -5.88)"/></g><g id="_002" data-name="002"><polygon class="cls-1" points="44.18 54.55 45.44 33.38 43.74 32.35 44.18 54.55"/><polygon class="cls-1" points="41.35 55.41 42.56 31.63 40.84 30.59 41.35 55.41"/><polygon class="cls-1" points="38.57 56.27 39.77 29.94 38.06 28.9 38.57 56.27"/><polygon class="cls-1" points="53.35 51.73 54.13 38.65 52.45 37.63 53.35 51.73"/><polygon class="cls-1" points="50.45 52.62 51.25 36.91 49.54 35.87 50.45 52.62"/><polygon class="cls-1" points="47.63 53.49 48.46 35.21 46.76 34.18 47.63 53.49"/><polygon class="cls-1" points="35.72 57.14 36.87 28.18 35.16 27.14 35.72 57.14"/><polygon class="cls-1" points="33.03 57.92 34.19 26.55 32.47 25.51 33.03 57.92"/></g><g id="_001" data-name="001"><polygon class="cls-1" points="37.46 24.42 36.48 7.87 38.18 6.84 37.46 24.42"/><polygon class="cls-1" points="40.38 26.19 39.36 6.12 41.08 5.08 40.38 26.19"/><polygon class="cls-1" points="43.21 27.91 42.15 4.43 43.86 3.39 43.21 27.91"/><polygon class="cls-1" points="46.12 29.68 45.04 2.67 46.76 1.63 46.12 29.68"/><polygon class="cls-1" points="48.84 31.33 47.73 1.04 49.45 0 48.84 31.33"/></g></svg>